<mxfile host="app.diagrams.net" modified="2023-01-24T12:53:59.341Z" agent="5.0 (Windows NT 10.0; Win64; x64) AppleWebKit/537.36 (KHTML, like Gecko) Chrome/109.0.0.0 Safari/537.36" etag="_pSbd0XAQ2Njhaqx7ZH5" version="20.8.10" type="github">
  <diagram id="C5RBs43oDa-KdzZeNtuy" name="Page-1">
    <mxGraphModel dx="1877" dy="541" grid="1" gridSize="10" guides="1" tooltips="1" connect="1" arrows="1" fold="1" page="1" pageScale="1" pageWidth="827" pageHeight="1169" math="0" shadow="0">
      <root>
        <mxCell id="WIyWlLk6GJQsqaUBKTNV-0" />
        <mxCell id="WIyWlLk6GJQsqaUBKTNV-1" parent="WIyWlLk6GJQsqaUBKTNV-0" />
        <mxCell id="85e18FYBzcfos3lwY5GP-7" value="" style="edgeStyle=orthogonalEdgeStyle;rounded=0;orthogonalLoop=1;jettySize=auto;html=1;" edge="1" parent="WIyWlLk6GJQsqaUBKTNV-1" source="85e18FYBzcfos3lwY5GP-0" target="85e18FYBzcfos3lwY5GP-3">
          <mxGeometry relative="1" as="geometry" />
        </mxCell>
        <mxCell id="85e18FYBzcfos3lwY5GP-0" value="Start&lt;br&gt;" style="ellipse;whiteSpace=wrap;html=1;" vertex="1" parent="WIyWlLk6GJQsqaUBKTNV-1">
          <mxGeometry x="200" y="30" width="120" height="80" as="geometry" />
        </mxCell>
        <mxCell id="85e18FYBzcfos3lwY5GP-1" value="End" style="ellipse;whiteSpace=wrap;html=1;" vertex="1" parent="WIyWlLk6GJQsqaUBKTNV-1">
          <mxGeometry x="210" y="480" width="120" height="80" as="geometry" />
        </mxCell>
        <mxCell id="85e18FYBzcfos3lwY5GP-2" value="Declare a, b, c" style="shape=hexagon;perimeter=hexagonPerimeter2;whiteSpace=wrap;html=1;fixedSize=1;" vertex="1" parent="WIyWlLk6GJQsqaUBKTNV-1">
          <mxGeometry x="140" y="130" width="260" height="50" as="geometry" />
        </mxCell>
        <mxCell id="85e18FYBzcfos3lwY5GP-5" value="" style="edgeStyle=orthogonalEdgeStyle;rounded=0;orthogonalLoop=1;jettySize=auto;html=1;" edge="1" parent="WIyWlLk6GJQsqaUBKTNV-1" source="85e18FYBzcfos3lwY5GP-3" target="85e18FYBzcfos3lwY5GP-4">
          <mxGeometry relative="1" as="geometry" />
        </mxCell>
        <mxCell id="85e18FYBzcfos3lwY5GP-3" value="Input&lt;br&gt;get value of a, b, c" style="shape=parallelogram;perimeter=parallelogramPerimeter;whiteSpace=wrap;html=1;fixedSize=1;" vertex="1" parent="WIyWlLk6GJQsqaUBKTNV-1">
          <mxGeometry x="160" y="200" width="200" height="40" as="geometry" />
        </mxCell>
        <mxCell id="85e18FYBzcfos3lwY5GP-11" value="" style="edgeStyle=orthogonalEdgeStyle;rounded=0;orthogonalLoop=1;jettySize=auto;html=1;entryX=0.5;entryY=0;entryDx=0;entryDy=0;" edge="1" parent="WIyWlLk6GJQsqaUBKTNV-1" source="85e18FYBzcfos3lwY5GP-4" target="85e18FYBzcfos3lwY5GP-10">
          <mxGeometry relative="1" as="geometry">
            <mxPoint x="470" y="270" as="targetPoint" />
          </mxGeometry>
        </mxCell>
        <mxCell id="85e18FYBzcfos3lwY5GP-13" style="edgeStyle=orthogonalEdgeStyle;rounded=0;orthogonalLoop=1;jettySize=auto;html=1;" edge="1" parent="WIyWlLk6GJQsqaUBKTNV-1" source="85e18FYBzcfos3lwY5GP-4" target="85e18FYBzcfos3lwY5GP-8">
          <mxGeometry relative="1" as="geometry">
            <Array as="points">
              <mxPoint x="195" y="295" />
              <mxPoint x="195" y="300" />
            </Array>
          </mxGeometry>
        </mxCell>
        <mxCell id="85e18FYBzcfos3lwY5GP-30" style="edgeStyle=orthogonalEdgeStyle;rounded=0;orthogonalLoop=1;jettySize=auto;html=1;entryX=0.5;entryY=0;entryDx=0;entryDy=0;" edge="1" parent="WIyWlLk6GJQsqaUBKTNV-1" source="85e18FYBzcfos3lwY5GP-4" target="85e18FYBzcfos3lwY5GP-1">
          <mxGeometry relative="1" as="geometry" />
        </mxCell>
        <mxCell id="85e18FYBzcfos3lwY5GP-4" value="a&amp;gt;b" style="rhombus;whiteSpace=wrap;html=1;" vertex="1" parent="WIyWlLk6GJQsqaUBKTNV-1">
          <mxGeometry x="220" y="255" width="80" height="70" as="geometry" />
        </mxCell>
        <mxCell id="85e18FYBzcfos3lwY5GP-22" value="" style="edgeStyle=orthogonalEdgeStyle;rounded=0;orthogonalLoop=1;jettySize=auto;html=1;startArrow=none;" edge="1" parent="WIyWlLk6GJQsqaUBKTNV-1" source="85e18FYBzcfos3lwY5GP-23" target="85e18FYBzcfos3lwY5GP-21">
          <mxGeometry relative="1" as="geometry" />
        </mxCell>
        <mxCell id="85e18FYBzcfos3lwY5GP-29" value="" style="edgeStyle=orthogonalEdgeStyle;rounded=0;orthogonalLoop=1;jettySize=auto;html=1;" edge="1" parent="WIyWlLk6GJQsqaUBKTNV-1" source="85e18FYBzcfos3lwY5GP-8" target="85e18FYBzcfos3lwY5GP-28">
          <mxGeometry relative="1" as="geometry" />
        </mxCell>
        <mxCell id="85e18FYBzcfos3lwY5GP-8" value="b&amp;gt;c" style="rhombus;whiteSpace=wrap;html=1;" vertex="1" parent="WIyWlLk6GJQsqaUBKTNV-1">
          <mxGeometry x="60" y="315" width="80" height="80" as="geometry" />
        </mxCell>
        <mxCell id="85e18FYBzcfos3lwY5GP-16" value="" style="edgeStyle=orthogonalEdgeStyle;rounded=0;orthogonalLoop=1;jettySize=auto;html=1;" edge="1" parent="WIyWlLk6GJQsqaUBKTNV-1" source="85e18FYBzcfos3lwY5GP-10" target="85e18FYBzcfos3lwY5GP-15">
          <mxGeometry relative="1" as="geometry" />
        </mxCell>
        <mxCell id="85e18FYBzcfos3lwY5GP-19" value="" style="edgeStyle=orthogonalEdgeStyle;rounded=0;orthogonalLoop=1;jettySize=auto;html=1;" edge="1" parent="WIyWlLk6GJQsqaUBKTNV-1" source="85e18FYBzcfos3lwY5GP-10" target="85e18FYBzcfos3lwY5GP-18">
          <mxGeometry relative="1" as="geometry" />
        </mxCell>
        <mxCell id="85e18FYBzcfos3lwY5GP-10" value="a&amp;gt;c" style="rhombus;whiteSpace=wrap;html=1;" vertex="1" parent="WIyWlLk6GJQsqaUBKTNV-1">
          <mxGeometry x="340" y="315" width="80" height="70" as="geometry" />
        </mxCell>
        <mxCell id="85e18FYBzcfos3lwY5GP-12" value="true" style="text;html=1;align=center;verticalAlign=middle;resizable=0;points=[];autosize=1;strokeColor=none;fillColor=none;" vertex="1" parent="WIyWlLk6GJQsqaUBKTNV-1">
          <mxGeometry x="374" y="285" width="40" height="30" as="geometry" />
        </mxCell>
        <mxCell id="85e18FYBzcfos3lwY5GP-14" value="False" style="text;html=1;align=center;verticalAlign=middle;resizable=0;points=[];autosize=1;strokeColor=none;fillColor=none;" vertex="1" parent="WIyWlLk6GJQsqaUBKTNV-1">
          <mxGeometry x="120" y="270" width="50" height="30" as="geometry" />
        </mxCell>
        <mxCell id="85e18FYBzcfos3lwY5GP-35" style="edgeStyle=orthogonalEdgeStyle;rounded=0;orthogonalLoop=1;jettySize=auto;html=1;entryX=1;entryY=0.5;entryDx=0;entryDy=0;" edge="1" parent="WIyWlLk6GJQsqaUBKTNV-1" source="85e18FYBzcfos3lwY5GP-15" target="85e18FYBzcfos3lwY5GP-1">
          <mxGeometry relative="1" as="geometry">
            <Array as="points">
              <mxPoint x="540" y="520" />
            </Array>
          </mxGeometry>
        </mxCell>
        <mxCell id="85e18FYBzcfos3lwY5GP-15" value="output a" style="shape=parallelogram;perimeter=parallelogramPerimeter;whiteSpace=wrap;html=1;fixedSize=1;" vertex="1" parent="WIyWlLk6GJQsqaUBKTNV-1">
          <mxGeometry x="480" y="320" width="120" height="60" as="geometry" />
        </mxCell>
        <mxCell id="85e18FYBzcfos3lwY5GP-17" value="true" style="text;html=1;align=center;verticalAlign=middle;resizable=0;points=[];autosize=1;strokeColor=none;fillColor=none;" vertex="1" parent="WIyWlLk6GJQsqaUBKTNV-1">
          <mxGeometry x="435" y="330" width="40" height="30" as="geometry" />
        </mxCell>
        <mxCell id="85e18FYBzcfos3lwY5GP-38" style="edgeStyle=orthogonalEdgeStyle;rounded=0;orthogonalLoop=1;jettySize=auto;html=1;entryX=0.935;entryY=0.233;entryDx=0;entryDy=0;entryPerimeter=0;" edge="1" parent="WIyWlLk6GJQsqaUBKTNV-1" source="85e18FYBzcfos3lwY5GP-18" target="85e18FYBzcfos3lwY5GP-1">
          <mxGeometry relative="1" as="geometry" />
        </mxCell>
        <mxCell id="85e18FYBzcfos3lwY5GP-18" value="output c" style="shape=parallelogram;perimeter=parallelogramPerimeter;whiteSpace=wrap;html=1;fixedSize=1;" vertex="1" parent="WIyWlLk6GJQsqaUBKTNV-1">
          <mxGeometry x="300" y="410" width="100" height="45" as="geometry" />
        </mxCell>
        <mxCell id="85e18FYBzcfos3lwY5GP-20" value="false" style="text;html=1;align=center;verticalAlign=middle;resizable=0;points=[];autosize=1;strokeColor=none;fillColor=none;" vertex="1" parent="WIyWlLk6GJQsqaUBKTNV-1">
          <mxGeometry x="374" y="380" width="50" height="30" as="geometry" />
        </mxCell>
        <mxCell id="85e18FYBzcfos3lwY5GP-34" style="edgeStyle=orthogonalEdgeStyle;rounded=0;orthogonalLoop=1;jettySize=auto;html=1;" edge="1" parent="WIyWlLk6GJQsqaUBKTNV-1" source="85e18FYBzcfos3lwY5GP-21" target="85e18FYBzcfos3lwY5GP-1">
          <mxGeometry relative="1" as="geometry">
            <Array as="points">
              <mxPoint x="-29" y="540" />
            </Array>
          </mxGeometry>
        </mxCell>
        <mxCell id="85e18FYBzcfos3lwY5GP-21" value="output c" style="shape=parallelogram;perimeter=parallelogramPerimeter;whiteSpace=wrap;html=1;fixedSize=1;" vertex="1" parent="WIyWlLk6GJQsqaUBKTNV-1">
          <mxGeometry x="-89" y="350" width="120" height="60" as="geometry" />
        </mxCell>
        <mxCell id="85e18FYBzcfos3lwY5GP-24" value="" style="edgeStyle=orthogonalEdgeStyle;rounded=0;orthogonalLoop=1;jettySize=auto;html=1;endArrow=none;" edge="1" parent="WIyWlLk6GJQsqaUBKTNV-1" source="85e18FYBzcfos3lwY5GP-8" target="85e18FYBzcfos3lwY5GP-23">
          <mxGeometry relative="1" as="geometry">
            <mxPoint x="60" y="355" as="sourcePoint" />
            <mxPoint x="-10" y="355" as="targetPoint" />
          </mxGeometry>
        </mxCell>
        <mxCell id="85e18FYBzcfos3lwY5GP-23" value="false" style="text;html=1;align=center;verticalAlign=middle;resizable=0;points=[];autosize=1;strokeColor=none;fillColor=none;" vertex="1" parent="WIyWlLk6GJQsqaUBKTNV-1">
          <mxGeometry x="10" y="335" width="50" height="30" as="geometry" />
        </mxCell>
        <mxCell id="85e18FYBzcfos3lwY5GP-36" style="edgeStyle=orthogonalEdgeStyle;rounded=0;orthogonalLoop=1;jettySize=auto;html=1;" edge="1" parent="WIyWlLk6GJQsqaUBKTNV-1" source="85e18FYBzcfos3lwY5GP-28" target="85e18FYBzcfos3lwY5GP-1">
          <mxGeometry relative="1" as="geometry" />
        </mxCell>
        <mxCell id="85e18FYBzcfos3lwY5GP-28" value="output b" style="shape=parallelogram;perimeter=parallelogramPerimeter;whiteSpace=wrap;html=1;fixedSize=1;" vertex="1" parent="WIyWlLk6GJQsqaUBKTNV-1">
          <mxGeometry x="40" y="455" width="120" height="60" as="geometry" />
        </mxCell>
        <mxCell id="85e18FYBzcfos3lwY5GP-31" value="true" style="text;html=1;align=center;verticalAlign=middle;resizable=0;points=[];autosize=1;strokeColor=none;fillColor=none;" vertex="1" parent="WIyWlLk6GJQsqaUBKTNV-1">
          <mxGeometry x="100" y="410" width="40" height="30" as="geometry" />
        </mxCell>
      </root>
    </mxGraphModel>
  </diagram>
</mxfile>
